<svg id="Layer_1" xmlns="http://www.w3.org/2000/svg" viewBox="0 0 512 512"><style>path{fill:#3bb09d}</style><path d="M507.756 176.986a9.495 9.495 0 0 0-1.838-.935l.005-.012-28.034-10.783c3.652-5.604 5.667-11.774 5.667-18.294 0-26.583-33.318-47.407-75.852-47.407-23.434 0-44.054 6.329-57.863 16.452l-22.926-8.817c3.184-5.288 4.937-11.049 4.937-17.116 0-26.583-33.318-47.407-75.852-47.407s-75.852 20.824-75.852 47.407c0 6.067 1.753 11.829 4.937 17.117l-16.851 6.481c-13.687-8.75-32.881-14.116-54.456-14.116-42.533 0-75.852 20.824-75.852 47.407 0 5.386 1.389 10.53 3.924 15.318L6.078 176.039l.005.012a9.411 9.411 0 0 0-1.838.935A9.48 9.48 0 0 0 0 184.889v170.667a9.482 9.482 0 0 0 5.787 8.732l246.518 104.296c.089.038.185.05.275.085.418.162.843.294 1.277.395.156.036.31.075.467.103a9.547 9.547 0 0 0 1.668.167h.014a9.36 9.36 0 0 0 1.669-.167c.156-.028.309-.066.464-.102a9.395 9.395 0 0 0 1.282-.396c.089-.035.183-.047.272-.084l246.519-104.296a9.482 9.482 0 0 0 5.787-8.732V184.889a9.478 9.478 0 0 0-4.243-7.903zm-100.052-58.467c33.526 0 56.889 14.991 56.889 28.444 0 13.454-23.363 28.444-56.889 28.444s-56.889-14.991-56.889-28.444c0-13.454 23.363-28.444 56.889-28.444zM256 61.63c33.526 0 56.889 14.991 56.889 28.444 0 13.454-23.363 28.444-56.889 28.444s-56.889-14.991-56.889-28.444c0-13.454 23.363-28.444 56.889-28.444zm-142.222 56.889c33.526 0 56.889 14.991 56.889 28.444 0 13.454-23.363 28.444-56.889 28.444s-56.889-14.991-56.889-28.444c0-13.454 23.363-28.444 56.889-28.444zm132.74 327.028L18.963 349.271V199.195l227.556 96.275v150.077zM256 278.891L34.804 185.308l20.452-7.866c13.806 10.404 34.718 16.928 58.521 16.928 42.533 0 75.852-20.824 75.852-47.407 0-6.746-2.154-13.118-6.051-18.876l15.875-6.105c13.786 9.568 33.853 15.499 56.547 15.499 22.695 0 42.762-5.931 56.548-15.5l23.55 9.057c-2.745 4.958-4.246 10.31-4.246 15.924 0 26.583 33.318 47.407 75.852 47.407 21.95 0 41.429-5.555 55.158-14.576l14.335 5.513L256 278.891zm237.037 70.38l-227.556 96.275V295.47l227.556-96.275v150.076z"/><path d="M256 156.445c-42.533 0-75.852 20.824-75.852 47.407 0 26.583 33.318 47.407 75.852 47.407s75.852-20.824 75.852-47.407c0-26.583-33.319-47.407-75.852-47.407zm0 75.851c-33.526 0-56.889-14.991-56.889-28.444s23.363-28.444 56.889-28.444 56.889 14.991 56.889 28.444-23.363 28.444-56.889 28.444z"/></svg>