<svg id="Capa_1" xmlns="http://www.w3.org/2000/svg" viewBox="0 0 60 60"><style>path{fill:#3bb09d}</style><path d="M38 54h-1c-1.281 0-2.69-2.012-2.953-5.005A3 3 0 0 0 37 46a2.997 2.997 0 0 0-2.541-2.954l1.686-4.216L33.08 35h3.145l-.217-.867C35.978 33.907 33 11.513 33 1.001V0h-6v1c0 10.51-2.979 32.907-3.009 33.133l-.153.867h3.081l-3.064 3.83 1.686 4.216A2.996 2.996 0 0 0 23 46a3 3 0 0 0 2.953 2.995C25.69 51.988 24.281 54 23 54h-1c-2.757 0-5 2.243-5 5v1h26v-1c0-2.757-2.243-5-5-5zm-8.52-19h1.039l3.335 4.17L32.323 43h-4.646l-1.532-3.83L29.48 35zm-1.517 14h4.074c.149 1.999.742 3.75 1.622 5h-7.318c.879-1.25 1.472-3.001 1.622-5z"/><path d="M38.281 35h12.213l-1.474-3.578A79.484 79.484 0 0 1 43 1V0h-8v1.001c0 10.127 2.819 31.565 2.984 32.812L38.281 35zm-16.266-1.174C22.038 33.644 25 11.377 25 1V0h-8v1a79.483 79.483 0 0 1-6.017 30.414L9.507 35h12.301l.207-1.174z"/></svg>