<svg style="display: none"><defs><style>.cls-1{fill:#231f20}</style><style>.cls-1{fill:#231f20}</style><style>.cls-1{fill:#231f20}</style><style>.cls-1{fill:#231f20}</style><style>.cls-1{fill:#231f20}</style></defs><symbol viewBox="0 0 50 26.003" id="arrow"><title>arrow</title><path d="M50 11.002H7.659l8.174-8.174L13.005 0 0 12.998l.003.003-.003.004 13.005 12.998 2.828-2.828-8.172-8.173H50z"/></symbol><symbol viewBox="0 0 512 512" id="block"><title>block</title><style>path{fill:#3bb09d}</style><path d="M507.756 176.986a9.495 9.495 0 0 0-1.838-.935l.005-.012-28.034-10.783c3.652-5.604 5.667-11.774 5.667-18.294 0-26.583-33.318-47.407-75.852-47.407-23.434 0-44.054 6.329-57.863 16.452l-22.926-8.817c3.184-5.288 4.937-11.049 4.937-17.116 0-26.583-33.318-47.407-75.852-47.407s-75.852 20.824-75.852 47.407c0 6.067 1.753 11.829 4.937 17.117l-16.851 6.481c-13.687-8.75-32.881-14.116-54.456-14.116-42.533 0-75.852 20.824-75.852 47.407 0 5.386 1.389 10.53 3.924 15.318L6.078 176.039l.005.012a9.411 9.411 0 0 0-1.838.935A9.48 9.48 0 0 0 0 184.889v170.667a9.482 9.482 0 0 0 5.787 8.732l246.518 104.296c.089.038.185.05.275.085.418.162.843.294 1.277.395.156.036.31.075.467.103a9.547 9.547 0 0 0 1.668.167h.014a9.36 9.36 0 0 0 1.669-.167c.156-.028.309-.066.464-.102a9.395 9.395 0 0 0 1.282-.396c.089-.035.183-.047.272-.084l246.519-104.296a9.482 9.482 0 0 0 5.787-8.732V184.889a9.478 9.478 0 0 0-4.243-7.903zm-100.052-58.467c33.526 0 56.889 14.991 56.889 28.444 0 13.454-23.363 28.444-56.889 28.444s-56.889-14.991-56.889-28.444c0-13.454 23.363-28.444 56.889-28.444zM256 61.63c33.526 0 56.889 14.991 56.889 28.444 0 13.454-23.363 28.444-56.889 28.444s-56.889-14.991-56.889-28.444c0-13.454 23.363-28.444 56.889-28.444zm-142.222 56.889c33.526 0 56.889 14.991 56.889 28.444 0 13.454-23.363 28.444-56.889 28.444s-56.889-14.991-56.889-28.444c0-13.454 23.363-28.444 56.889-28.444zm132.74 327.028L18.963 349.271V199.195l227.556 96.275v150.077zM256 278.891L34.804 185.308l20.452-7.866c13.806 10.404 34.718 16.928 58.521 16.928 42.533 0 75.852-20.824 75.852-47.407 0-6.746-2.154-13.118-6.051-18.876l15.875-6.105c13.786 9.568 33.853 15.499 56.547 15.499 22.695 0 42.762-5.931 56.548-15.5l23.55 9.057c-2.745 4.958-4.246 10.31-4.246 15.924 0 26.583 33.318 47.407 75.852 47.407 21.95 0 41.429-5.555 55.158-14.576l14.335 5.513L256 278.891zm237.037 70.38l-227.556 96.275V295.47l227.556-96.275v150.076z"/><path d="M256 156.445c-42.533 0-75.852 20.824-75.852 47.407 0 26.583 33.318 47.407 75.852 47.407s75.852-20.824 75.852-47.407c0-26.583-33.319-47.407-75.852-47.407zm0 75.851c-33.526 0-56.889-14.991-56.889-28.444s23.363-28.444 56.889-28.444 56.889 14.991 56.889 28.444-23.363 28.444-56.889 28.444z"/></symbol><symbol viewBox="264.205 370.961 20.294 18.849" id="cart"><title>cart</title><path d="M283.75 378.19h-3.151l-3.407-6.814a.75.75 0 1 0-1.341.671l3.071 6.143h-9.138l3.072-6.143a.75.75 0 0 0-1.341-.671l-3.407 6.814h-3.151a.75.75 0 0 0 0 1.5h.157l.855 2.991a.737.737 0 0 0-.316.595c0 .396.309.71.697.739l1.656 5.795h12.697l1.656-5.795a.745.745 0 0 0 .698-.739.738.738 0 0 0-.316-.596l.854-2.991h.157a.75.75 0 1 0-.002-1.499zm-4.181 10.121h-10.433l-1.224-4.284h12.881l-1.224 4.284zm1.653-5.785h-13.739l-.81-2.836h15.359l-.81 2.836z"/></symbol><symbol viewBox="46.212 56.834 46.575 27.332" id="dollar"><title>dollar</title><style>path{fill:#63d1bb}</style><path d="M88.882 56.834H50.116a3.905 3.905 0 0 0-3.904 3.905V80.26a3.905 3.905 0 0 0 3.904 3.905h38.766a3.906 3.906 0 0 0 3.905-3.905V60.739a3.906 3.906 0 0 0-3.905-3.905zm-39.647 24.95V59.551h40.202v22.233H49.235z"/><path d="M53.14 77.88h32.395V63.456H53.14V77.88zM69.5 65.354a5.315 5.315 0 1 1 0 10.63 5.315 5.315 0 0 1 0-10.63z"/></symbol><symbol viewBox="0 0 14.96 27.72" id="fb"><title>fb</title><path class="cls-1" d="M11.66 5.19a6.68 6.68 0 0 0 2.68-.3 8.12 8.12 0 0 0 .62-3 1.09 1.09 0 0 1-.21-.4c0-.2-.28-.19-.31-.4-.27-.15-.44-.41-.72-.58L11.56 0A13.56 13.56 0 0 0 9 .11 6.62 6.62 0 0 0 3.72 2.5c0 .08 0 .2-.1.2-.62 1.59-.13 3.62-.21 5.58.1.44.11 1 .2 1.39a18.82 18.82 0 0 1-3.4.5 3.06 3.06 0 0 0-.21 1.7 15 15 0 0 0 .41 1.59 3.53 3.53 0 0 0 .83.5.44.44 0 0 1 .1.1c.51.27 1.45 0 2.27.1-.14 2 .26 3.92 0 5.68a2 2 0 0 1 .21.8A8.25 8.25 0 0 0 4 23.33a2.63 2.63 0 0 0-.41 1.79c.12 0 .11.16.1.3-.07.47.64.17.52.7.16.46-.43.18-.41.5v.9a6 6 0 0 0 2.27.2c.91-.42 2.19-.48 2.79-1.2a1.28 1.28 0 0 0 1.24-.2 2.82 2.82 0 0 0 .21-.7 3.32 3.32 0 0 1-.1-.9v-2.89c-.21-2.29 0-4.94-.31-7.18a9.1 9.1 0 0 0 2.58-.4 4.85 4.85 0 0 0 .52-1.88 1.56 1.56 0 0 0 .21-1 2.4 2.4 0 0 0 .1-1.1c-.14-.6-.17-1.3-.83-1.39-.88-.24-2 .6-3 .3 0-1.13-.29-2.34 0-3.39.76-.18 1.46-.4 2.18-.6zM7.84 10a3.76 3.76 0 0 0 .41.7c.08 0 .2 0 .21.1a10.32 10.32 0 0 0 3.1-.3A7.46 7.46 0 0 1 11 13a10 10 0 0 1-2 .2 7.41 7.41 0 0 0-.62.7 2.26 2.26 0 0 1 0 .8 3.7 3.7 0 0 0-.21.8V17a1.7 1.7 0 0 1-.1.5v3.49a1.75 1.75 0 0 0 .1.5v3a1.46 1.46 0 0 0 .1.9c-.07.36-.41 0-.82.1a7.66 7.66 0 0 1-1.55.4 2.81 2.81 0 0 0 .31-1.1c0-.38-.37-.31-.52-.5.19-.64.56-1.12.72-1.79.2-.51.71-1.3.31-1.79A1 1 0 0 0 6 21c0 .08 0 .2-.1.2s0 .2-.1.2-.15.06 0 0 0-.2.1-.2 0-.2.1-.2v-.3a5.71 5.71 0 0 0 .83-2 4.81 4.81 0 0 0 .41-1 1.29 1.29 0 0 0 .1-1.2 1 1 0 0 0-.93.7c-.32-.19.16-.43.1-.7.14-.23.17-.57.31-.8.2-.41.56-1.3 0-1.6a.66.66 0 0 0-.72.5 1.45 1.45 0 0 0-.52.7c-.37-.07-.14-.73-.21-1.1a8.53 8.53 0 0 0 0-1.2c-.56-.8-2-.11-3.2-.3a2.24 2.24 0 0 1-.1-1.2c1-.09 2.48.2 3.2-.2 0-.08 0-.2.1-.2a1.78 1.78 0 0 0-.51-1.4 17.1 17.1 0 0 0 .1-3 3.28 3.28 0 0 0 .51-.6c.11-1 .67-1.48.72-2.49-.27 0-.61-.05-.62.2-.3-.11-.38.48-.51.2a1.7 1.7 0 0 1 .31-1C6 2.68 6.58 2.28 7.23 1.9c1.74-.24 4.65-.45 6.09.2.04.62-.32.9-.21 1.5h-1.55a30.6 30.6 0 0 0-3 1c-.23.06-.27.33-.51.4a5.91 5.91 0 0 1-.31 1c-.08 1.43.13 2.59.1 4z" id="fb-facebook"/></symbol><symbol viewBox="0 0 60 60" id="flag"><title>flag</title><path fill="#62d1ba" d="M52 23.5L10 40V4z"/><path d="M9 0a1 1 0 0 0-1 1v58a1 1 0 1 0 2 0V1a1 1 0 0 0-1-1z"/></symbol><symbol viewBox="8.014 4.35 31.972 37.301" id="flower"><title>flower</title><style>path{fill:#63d1bb}</style><path d="M24 41.65c8.827 0 15.986-7.159 15.986-15.986C31.158 25.664 24 32.822 24 41.65zM12.641 20.78a4.442 4.442 0 0 0 4.44 4.441c.932 0 1.803-.294 2.513-.782l-.036.337c0 2.451 1.99 4.441 4.441 4.441s4.44-1.99 4.44-4.441l-.036-.337a4.396 4.396 0 0 0 2.514.782c2.451 0 4.44-1.99 4.44-4.441a4.418 4.418 0 0 0-2.54-3.997 4.434 4.434 0 0 0 2.54-3.997 4.441 4.441 0 0 0-6.954-3.659l.037-.337a4.441 4.441 0 0 0-8.881 0l.036.337a4.392 4.392 0 0 0-2.513-.781 4.442 4.442 0 0 0-4.44 4.44 4.42 4.42 0 0 0 2.54 3.997 4.42 4.42 0 0 0-2.541 3.997zM24 12.343a4.441 4.441 0 0 1 4.44 4.44 4.441 4.441 0 0 1-8.881 0c0-2.451 1.99-4.44 4.441-4.44zM8.014 25.664c0 8.827 7.158 15.986 15.986 15.986 0-8.828-7.158-15.986-15.986-15.986z"/></symbol><symbol viewBox="239.665 239.757 32.666 32.486" id="gift"><title>gift</title><style>path{fill:#63d1bb}</style><path d="M242.56 272.243h12.504v-13.91H242.56v13.91zm28.182-23.62h-7.335c.521-.267.984-.549 1.396-.845 1.588-1.133 2.424-2.57 2.42-3.999.002-1.169-.556-2.202-1.359-2.901a4.585 4.585 0 0 0-3.016-1.121c-1.22-.001-2.352.421-3.32 1.069-1.459.979-2.606 2.451-3.424 4.067-.039.079-.078.157-.115.236a12.944 12.944 0 0 0-1.041-1.792c-.691-.985-1.523-1.86-2.497-2.511-.97-.646-2.103-1.069-3.322-1.069-1.213.004-2.323.514-3.155 1.295-.828.783-1.41 1.885-1.412 3.135-.002.73.211 1.494.649 2.188.552.872 1.424 1.628 2.633 2.248h-6.588c-.878 0-1.591.712-1.591 1.59v5.897h15.396v-7.488h1.873v7.488h15.396v-5.897a1.585 1.585 0 0 0-1.588-1.59m-22.362-2.339c-.622-.391-1-.785-1.22-1.135-.22-.354-.294-.662-.296-.963-.004-.504.248-1.042.691-1.461.437-.415 1.028-.667 1.562-.667h.013c.685 0 1.366.231 2.046.683 1.018.671 1.975 1.85 2.645 3.187.342.676.609 1.39.789 2.087-3.082-.321-5.078-1.002-6.23-1.731m10.537-1.627c.557-.797 1.21-1.466 1.887-1.916.68-.451 1.362-.683 2.047-.683h.006c.574 0 1.117.22 1.494.55.377.336.571.739.573 1.171-.004.512-.272 1.259-1.467 2.132-1.138.825-3.101 1.673-6.127 2.265a10.57 10.57 0 0 1 1.587-3.519m-1.98 27.586h12.506v-13.91h-12.506v13.91z"/></symbol><symbol viewBox="47.475 50.071 33.05 27.857" id="heart"><title>heart</title><style>path{fill:#63d1bb}</style><path d="M80.525 58.808a8.736 8.736 0 0 0-8.736-8.736A8.727 8.727 0 0 0 64 54.865a8.727 8.727 0 0 0-7.789-4.793 8.736 8.736 0 0 0-8.736 8.736c0 9.127 14.657 19.121 16.525 19.121 1.869 0 16.525-9.95 16.525-19.121z"/></symbol><symbol viewBox="0 0 60 60" id="htmlacademy"><title>htmlacademy</title><path fill="#63d1bb" d="M30.2 5H30L10.3 7.1v36.2L30 55l19.7-11.7V7.1L30.2 5zm17 36.8L30 52 12.8 41.8V27l17.1 10.2V39l-11.7-7v1.8L30 40.9v1.9l-11.8-7v1.8l11.8 7 11.9-7.1v-7.6l5.3-3.2v15.1zm-.1-17l-4.7 2.8-2.2 1.3-10.3-6.1v1.8l8.8 5.3h-.1l-.2.1-1.3.7-7.3-4.3v1.8l5.8 3.4-1.4.9-4.3-2.6v1.8l2.9 1.7-2.9 1.7-17-10.1 17-10.2 17.2 10zm.1-1.8L29.9 12.8 12.8 23V9.4L30 7.6l17.2 1.8V23z"/></symbol><symbol viewBox="0 0 66 100.801" id="icon-map-pin"><title>icon-map-pin</title><path fill="#FFF" d="M56.334 9.228c-12.892-12.305-33.773-12.305-46.667 0-12.891 12.297-12.891 32.248 0 44.542 0 0 23.318 21.832 23.318 47.031 0-25.199 23.343-47.031 23.343-47.031 12.897-12.294 12.897-32.245.006-44.542z"/><path fill="#6BC6B3" d="M47.036 45.522c-.636-3.277.13-6.947.027-10.284-.115-3.755-.713-7.485-.665-11.246.039-3.044.545-6.173-.503-9.091.065-.332.134-.662.195-.995.271-1.463-4.577-.689-5.338.649-.479.393-.726.861-.523 1.339.051.121.097.243.142.365-.917 4.485-2.197 8.827-3.668 13.174-.563 1.663-1.244 3.288-1.817 4.946-.814-1.545-1.638-3.071-2.3-4.728-1.922-4.805-3.656-9.661-6-14.285.266-2.14-4.484-1.916-5.421.044-1.132 2.371-.986 4.763-.613 7.299.42 2.858.494 5.668.528 8.554.066 5.566.502 11.119.584 16.684-.496.552-.646 1.233-.127 1.924.226.302.505.535.799.769 1.265 1.013 4.899.15 4.893-1.779-.02-5.771-.437-11.531-.589-17.299-.015-.565-.025-1.129-.034-1.694.08.203.159.406.24.607.896 2.245 1.833 4.427 3.059 6.514 1.214 2.068 1.824 4.289 2.523 6.547-.265.303-.423.647-.326.991-.055.251.099.409.352.504.894.766 2.578.383 3.513-.01a8.28 8.28 0 0 0 1.155-.593c.483-.297 1.236-.95 1.021-1.622a44.64 44.64 0 0 1-.121-.391c.657-1.776.992-3.625 1.352-5.5.381-2 1.095-3.892 1.812-5.786.073.867.149 1.732.219 2.597.285 3.575.046 7.099.011 10.674a16.22 16.22 0 0 0 .306 3.445c.096.479.514 2.53.394 2.642-.855.79-.606 1.759.539 2.011 1.279.281 2.912-.148 3.877-1.039 1.675-1.548.882-3.98.504-5.937z"/></symbol><symbol viewBox="247.3 382.56 100.678 76.891" id="icon-play"><title>icon-play</title><path fill="#63D1BB" d="M344.255 400.708s-.92-7.008-3.785-10.078c-3.632-4.041-7.674-4.066-9.541-4.297-13.326-1.023-33.303-1.023-33.303-1.023h-.051s-19.978 0-33.304 1.023c-1.867.23-5.908.256-9.54 4.297-2.84 3.096-3.786 10.078-3.786 10.078s-.896 8.211-.896 16.422v7.699c0 8.21.947 16.421.947 16.421s.921 7.009 3.785 10.078c3.632 4.041 8.364 3.913 10.487 4.349 7.622.767 32.356 1.022 32.356 1.022s20.003-.025 33.329-1.048c1.867-.23 5.908-.256 9.54-4.298 2.84-3.069 3.786-10.078 3.786-10.078s.946-8.21.946-16.421v-7.699c-.023-8.236-.97-16.447-.97-16.447z"/><path fill="#FFF" d="M297.614 459.449h-.016c-1.015-.011-24.946-.266-32.604-1.037l-.14-.014-.137-.028c-.271-.056-.668-.107-1.126-.167-2.503-.328-7.159-.938-10.839-5.019-3.354-3.616-4.377-10.771-4.483-11.576l-.005-.043c-.039-.342-.965-8.463-.965-16.736v-7.699c0-8.266.875-16.378.912-16.72l.009-.071c.108-.802 1.155-7.928 4.474-11.557 3.996-4.439 8.531-4.899 10.712-5.121.192-.02.37-.037.529-.058l.126-.013c13.277-1.019 33.312-1.031 33.514-1.031h.051c.201 0 20.236.013 33.514 1.031l.126.013c.159.021.337.038.529.058 2.179.221 6.71.682 10.704 5.112 3.354 3.616 4.377 10.771 4.483 11.577l.005.043c.039.342.965 8.459.99 16.753v7.708c0 8.273-.926 16.395-.965 16.736l-.007.053c-.108.805-1.156 7.953-4.478 11.562-3.994 4.435-8.527 4.896-10.707 5.117-.193.02-.371.037-.53.057l-.126.013c-13.276 1.02-33.334 1.057-33.535 1.058l-.015-.001zm-31.944-6.497c7.477.729 31.216.989 31.968.997.657-.001 20.135-.049 33.047-1.036.178-.021.371-.041.58-.062 1.836-.186 4.608-.468 7.186-3.335l.026-.029c1.825-1.974 2.853-6.928 3.075-8.552.059-.514.926-8.358.926-16.08v-7.699c-.023-7.76-.896-15.627-.951-16.109-.32-2.382-1.434-6.789-3.066-8.539l-.035-.038c-2.577-2.868-5.351-3.149-7.186-3.336a34.367 34.367 0 0 1-.58-.062c-13.066-.998-32.834-1.011-33.033-1.011h-.051c-.198 0-19.967.013-33.033 1.011a33.29 33.29 0 0 1-.58.062c-1.835.187-4.607.468-7.186 3.336l-.019.021c-1.828 1.993-2.855 6.924-3.082 8.552-.062.591-.875 8.399-.875 16.089v7.699c0 7.749.871 15.598.926 16.083.32 2.381 1.433 6.789 3.066 8.539l.035.039c2.322 2.584 5.303 2.975 7.479 3.259.481.061.939.121 1.363.201z"/><g><path fill="#FFF" d="M285.733 403.138v35.708l29.747-17.854z"/></g></symbol><symbol viewBox="0 0 21.77 21.33" id="insta"><title>insta</title><path class="cls-1" d="M21.77 12.15c0-2.39-.34-4.79-.3-7.13 0-.79-.09-1.54-.15-2.28a5.29 5.29 0 0 1-.15-1.06 8.8 8.8 0 0 1-.47-.85A7.67 7.67 0 0 0 19 .61c-.66 0-1.25-.12-1.9-.15-1.94-.1-4-.08-6-.08A43.25 43.25 0 0 1 5.37 0h-2.2a.6.6 0 0 1-.23.08 9.25 9.25 0 0 0-1.59.3 2.81 2.81 0 0 1-.68.3 3 3 0 0 0-.61.38c-.19.21.18.45 0 .61v.91a1.73 1.73 0 0 1 .08.83v1c0 1.28.13 2.4.08 3.72a38.7 38.7 0 0 1 .08 9.41 14.11 14.11 0 0 1 .46 1.75 7.61 7.61 0 0 0 .68 1.52 6.73 6.73 0 0 0 1.9.23 4.34 4.34 0 0 0 1.14.3c2.84-.21 5.5-.15 8.43-.23a34.61 34.61 0 0 0 8.28-.23 1.77 1.77 0 0 0 .23-.76 2.22 2.22 0 0 1 .23-.76c.1-2.36.13-4.79.12-7.21zm-13-6.22a9.43 9.43 0 0 1 2.43-.3 10.79 10.79 0 0 1 1.9.46c.12.18-.24.55.15.68v.06c.06 0 .15 0 .15.08a1.92 1.92 0 0 1 1.06.38c.45.05.54.48 1.14.38a2.18 2.18 0 0 0-.08.83 11.88 11.88 0 0 1 .3 4.25 1.86 1.86 0 0 0-.3.68 9.81 9.81 0 0 1-.84 1.06 1.08 1.08 0 0 1-.45.53.89.89 0 0 1-.46.53 1 1 0 0 1-.77-.06 3.44 3.44 0 0 0-1.21.61c-.82-.1-1.65-.17-2.43-.3a1.94 1.94 0 0 0-.83-.3 2 2 0 0 0-.89-.5 3.79 3.79 0 0 0-.46-.23 2.32 2.32 0 0 0-.46-.23 11.72 11.72 0 0 1-.53-1.06 5.55 5.55 0 0 1-.46-1.21 13.41 13.41 0 0 1 .38-3.8c.35-.59.78-1.09 1.14-1.67a.3.3 0 0 0 .38-.3 2.53 2.53 0 0 0 .68-.08 1.78 1.78 0 0 0 .47-.5zM7.11 3.19A3.27 3.27 0 0 1 7 2.13a2.84 2.84 0 0 1 .3-.53c0-.07-.09-.06-.15-.08a1 1 0 0 1 .83 0c.18.53-.31.48-.49.68 0 .17.32 0 .46.08 0 .85-.06 1.5 0 2.2h-.46c0 .23.23.23.46.23a2.68 2.68 0 0 0 .05.6 3 3 0 0 1-1 .08c-.14-.59.2-1.39.11-2.2zm-.68-1.6a.12.12 0 0 1 .15.08 1.1 1.1 0 0 1-.08.91 2.44 2.44 0 0 1-.07-.99zm.15 1.83A.44.44 0 0 1 6.43 3a.44.44 0 0 1 .15.42zm0 1.37c-.06.14-.08 0-.08-.15s.09.04.08.14zM6.43 5a.77.77 0 0 1 .23.23c0 .19-.28.18-.38.08s.11-.19.15-.31zM4.08 3.79c0-.11 0-.21-.08-.23-.07-.73.13-1.41 0-2a3.41 3.41 0 0 1 1.14-.08v1.18a.49.49 0 0 1-.38.08c-.05.26.32.12.38.26a9.3 9.3 0 0 0 .15 2.43c-.57-.06-.91.11-1.44.08.1-.61 0-1.43.53-1.59a.81.81 0 0 0-.3-.13zm-.53 0c-.2 0-.22-.53-.08-.61.33.01.25.51.08.61zm-.15 1a3.67 3.67 0 0 0 .07-.69c.23.01.26.77-.08.68zm.23-2c-.26.05-.27-.27-.15-.38s.26.21.14.32zm0-1.14a.49.49 0 0 1-.08.3.78.78 0 0 1-.23-.23c.02-.15.19-.11.3-.13zm-.24 3.66c.15 0 .11.34-.08.23a.36.36 0 0 0 .08-.23zm-.68-3.72c0 .26-.44.32-.38 0h.38zm-1 .08a3.52 3.52 0 0 1-.37.33c-.21-.12.09-.42.38-.33zm-.46.76L2 1.82a.58.58 0 0 1 0-.23h.26c.1.41-.26.3-.26.53a.62.62 0 0 1-.08.23 4.67 4.67 0 0 1 .08 1 1.79 1.79 0 0 1-.61.23c-.02-.44-.18-.69-.12-1.15zm.09 3.26V4.1c.2-.18.4-.36.61-.53.3.49.18 1.43.46 1.89a8.81 8.81 0 0 1-1.07.23zm18.22 11.09a21.35 21.35 0 0 1-.38 2.81c-2.89.12-6 0-8.88.15-.2 0-.27 0-.23-.23a4.45 4.45 0 0 1-.53.23 1.24 1.24 0 0 0 .15-1.29c-.8 0-.8.82-1.14 1.29-.69-.05-1.14.13-1.82.08.18-.71.75-1 .91-1.75-.39-.55-1 .14-1.21.45-.2.48-.56.81-.76 1.29h-1c.24-.47.49-.93.76-1.37a5.13 5.13 0 0 0 .68-1.37c-.16-.28-.42 0-.68 0-.12.18-.27.33-.38.53a8.63 8.63 0 0 0-.68 1.14c-.17.26-.37.01-.52.26-.39.27-.58.74-1 1-.17-.06 0-.36.15-.38a.9.9 0 0 1 .09-.62 2.41 2.41 0 0 1 .38-.91c.12-.74.52-1.2.68-1.9a1.93 1.93 0 0 0-1 1 7.29 7.29 0 0 0-.68 1.29 1.72 1.72 0 0 1-.08-.84c.12-.59.3-1.12.38-1.75A2.61 2.61 0 0 0 3 15a.71.71 0 0 0-.08-.76.54.54 0 0 0-.45.3c-.19 0-.19.51-.3.3 0-2.59-.45-4.81-.46-7.44a1.94 1.94 0 0 0-.21-.64c1.63 0 3.12.09 4.78.23a3.45 3.45 0 0 1-.3.38 1.88 1.88 0 0 0-.38.3 12.67 12.67 0 0 0-.6 6.15 4.39 4.39 0 0 0 1 1.44c.91.49 1.63 1.15 2.51 1.67a14.15 14.15 0 0 0 5.54 0 4.32 4.32 0 0 0 .68-.38c1.36-1.24 2.75-2.46 3-4.86v-1.37a4.93 4.93 0 0 0-1.75-3.64 3.86 3.86 0 0 1 1.67.08 5.8 5.8 0 0 0 .68 0 8.77 8.77 0 0 1 1.44 0 5.75 5.75 0 0 1 .23.76c-.06 1.68-.19 3.3-.15 5.09.1.45.13 1 .23 1.44a17 17 0 0 1-.52 2.73zm.38-11.16c-.64-.12-1.23-.29-1.94-.38.07-.33.8 0 1-.23.38-.22.29-.92.3-1.52a5 5 0 0 0 .08-1.06C19 1.48 17.63 2 16.53 2a6 6 0 0 0-.3 2.66c.17.49 1 .29 1.52.46-.14.33-.69.06-1 .08s-.75-.09-.98-.2c-2.29.08-4.28 0-6.53.15a17.2 17.2 0 0 0-.08-3.64h3.11c-.34.37-.91.49-1.27.84a3.15 3.15 0 0 0-1.14.91 1 1 0 0 0 .76-.38c.36-.07.48-.38.83-.46a5.9 5.9 0 0 1 1.67-.91 3.54 3.54 0 0 1 1 .08c1.28 0 2.46.13 3.8.08a13 13 0 0 1 2 .3 7.11 7.11 0 0 1 .3.91 25.58 25.58 0 0 1-.28 2.74zM14.1 1.9c.11 0 0-.09 0 0zm0 0a3.26 3.26 0 0 0-1.37.68 3.31 3.31 0 0 0 1.37-.68zm1.06.6c.11 0 0-.09 0 0zm-1.75.91a6 6 0 0 0 1.75-.91 7.1 7.1 0 0 0-1 .38 3.72 3.72 0 0 0-.74.54zm-.68-.84c-.11 0 0 .09 0 0zm-.73.62c.11 0 0-.09 0 0zm0 .07c.06 0 .07 0 .08-.08s-.08.04-.08.08zm-.08.08c.06 0 .07 0 .08-.08s-.1.03-.1.08zm-.83.61a2.06 2.06 0 0 0 .83-.61 2 2 0 0 0-.86.61zm2.28 1a6.68 6.68 0 0 0 1.21-.53 4.59 4.59 0 0 0 1-.76 4.11 4.11 0 0 0-1.22.53 7.44 7.44 0 0 0-1.02.74zm-2.28-1c-.32-.07 0 .23 0 0zm-.53.38s.12 0 .08-.08-.15.04-.11.08zm2.81.61c-.11 0 0 .09 0 0zM12.2 6.76a3.35 3.35 0 0 0-1-.38 5.32 5.32 0 0 0-1.75.23l-.91.45a4.08 4.08 0 0 1-.76.53 1.59 1.59 0 0 1-.68.61.48.48 0 0 1-.3.38 1.09 1.09 0 0 1-.22.42c0 .12 0 .29-.08.3a18.36 18.36 0 0 0 .68 4.18 5 5 0 0 0 1.44 1.29 6.32 6.32 0 0 0 2.13.53 3.19 3.19 0 0 1 .91-.08 5.09 5.09 0 0 0 2.81-1.44 1.58 1.58 0 0 1 .45-.68c-.25-.67.29-1.1.46-1.6a8.52 8.52 0 0 0-.6-3.5 4 4 0 0 0-1.37-1.14c-.06 0-.15 0-.15-.08a1.36 1.36 0 0 0-1.06-.02zm-3.42 4.32a.62.62 0 0 1-.15-.38c.26-.07.12.24.15.38zm.08.3c0-.12.08 0 .08.08s-.08.01-.08-.07zm.46-2.04c0-.09.08 0 .08 0s-.08.04-.08 0zM11 7.21a1 1 0 0 0 .08.84c-.32-.05-.59-.89-.08-.84zm.38 3.95s.05-.1.08-.08-.07.1-.09.08zm.74 2.84c0-.11.07 0 .15 0a.08.08 0 0 1-.15 0zm2.2-2.58c-.23-.06-.14.21-.38.15a1.57 1.57 0 0 1 .23-.46c.14.07.18.18.16.35zm-1.14-3.8a2.75 2.75 0 0 1 .61.38 2 2 0 0 0 .38.53 20.57 20.57 0 0 1 .15 2.35c-.26.1-.44.27-.68.38a4.44 4.44 0 0 1-1.9-.46c-.17-.26-.36-.5-.53-.76V9a4.2 4.2 0 0 0 .46-.61.56.56 0 0 0 .45-.61.38.38 0 0 1-.12-.19 2 2 0 0 1 .38.23 6 6 0 0 1 .81-.15z" id="insta-instagram"/></symbol><symbol viewBox="0 0 34.373 34.373" id="knitting"><title>knitting</title><style>path{fill:#63d1bb}</style><path d="M.286 14.069a17.244 17.244 0 0 0 .008 6.301l4.121-3.21-4.129-3.091zM24.403 1.585C19.62-.623 13.959-.559 9.149 1.992l7.513 5.625 7.741-6.032zM33.901 13.175l-4.811 3.748 4.936 3.695a17.248 17.248 0 0 0-.125-7.443zM9.209 32.414c4.844 2.534 10.724 2.65 15.73.113l-8.096-6.062-7.634 5.949zM7.914 14.433L1.681 9.767c-.32.669-.595 1.356-.825 2.056l5.308 3.974 1.75-1.364zM18.593 25.102l8.336 6.242a17.184 17.184 0 0 0 1.74-1.372l-8.326-6.234-1.75 1.364zM11.413 11.707L4.002 6.158a17.073 17.073 0 0 0-1.269 1.723l6.931 5.189 1.749-1.363zM22.093 22.375l8.092 6.059c.471-.544.904-1.112 1.297-1.701l-7.639-5.721-1.75 1.363zM14.913 8.98L7.196 3.203a17.436 17.436 0 0 0-1.709 1.394l7.676 5.747 1.75-1.364zM25.592 19.649l6.972 5.221c.33-.662.615-1.341.855-2.033l-6.077-4.55-1.75 1.362zM26.448 2.706L.88 22.626c.233.698.513 1.386.839 2.059l26.52-20.663a17.006 17.006 0 0 0-1.791-1.316zM30.743 6.624a17.418 17.418 0 0 0-.939-1.106L2.786 26.567a17.144 17.144 0 0 0 1.279 1.717l27.09-21.108c-.134-.186-.269-.37-.412-.552zM32.298 8.999L5.552 29.838c.544.501 1.114.962 1.708 1.382l25.962-20.228a17.158 17.158 0 0 0-.924-1.993z"/></symbol><symbol viewBox="0 0 60 60" id="lamp"><title>lamp</title><style>path{fill:#3bb09d}</style><path d="M38 54h-1c-1.281 0-2.69-2.012-2.953-5.005A3 3 0 0 0 37 46a2.997 2.997 0 0 0-2.541-2.954l1.686-4.216L33.08 35h3.145l-.217-.867C35.978 33.907 33 11.513 33 1.001V0h-6v1c0 10.51-2.979 32.907-3.009 33.133l-.153.867h3.081l-3.064 3.83 1.686 4.216A2.996 2.996 0 0 0 23 46a3 3 0 0 0 2.953 2.995C25.69 51.988 24.281 54 23 54h-1c-2.757 0-5 2.243-5 5v1h26v-1c0-2.757-2.243-5-5-5zm-8.52-19h1.039l3.335 4.17L32.323 43h-4.646l-1.532-3.83L29.48 35zm-1.517 14h4.074c.149 1.999.742 3.75 1.622 5h-7.318c.879-1.25 1.472-3.001 1.622-5z"/><path d="M38.281 35h12.213l-1.474-3.578A79.484 79.484 0 0 1 43 1V0h-8v1.001c0 10.127 2.819 31.565 2.984 32.812L38.281 35zM22.015 33.826C22.038 33.644 25 11.377 25 1V0h-8v1a79.483 79.483 0 0 1-6.017 30.414L9.507 35h12.301l.207-1.174z"/></symbol><symbol viewBox="0 0 20.51 20.51" id="menu-close"><title>menu-close</title><path class="cls-1" d="M20.51 1.41L19.1 0l-8.84 8.84L1.41 0 0 1.41l8.84 8.85L0 19.1l1.41 1.41 8.85-8.84 8.84 8.84 1.41-1.41-8.84-8.84 8.84-8.85z"/></symbol><symbol viewBox="0 0 19.96 14" id="menu"><title>menu</title><path class="cls-1" d="M0 0h19.96v2H0zM0 6h19.96v2H0zM0 12h19.96v2H0z"/></symbol><symbol viewBox="612.532 500.386 54.156 23.183" id="rocket"><title>rocket</title><style>path{fill:#63d1bb}</style><path d="M652.844 506.098c-3.647-.971-7.839-1.667-12.359-1.666a46.394 46.394 0 0 0-7.71.623l-6.784-4.668-13.456.005 5.811 6.184h8.447c-4.58 1.598-6.759 3.515-6.759 3.515l.002 3.777s2.313 1.912 6.931 3.518l-8.623-.005-5.811 6.188 13.455.002 6.816-4.692c2.261.398 4.822.647 7.681.648 4.522-.001 8.712-.697 12.36-1.667-1.176-1.775-1.915-3.743-1.918-5.877.003-2.141.738-4.112 1.917-5.885zM656.267 507.132c-1.284 1.605-1.969 3.25-1.965 4.84-.007 1.597.677 3.238 1.968 4.847 6.399-2.162 10.419-4.841 10.419-4.841s-4.019-2.68-10.422-4.846z"/></symbol><symbol viewBox="0 0 176.292 176.292" id="search"><title>search</title><path class="icon-color" d="M24.027 46.333c-4.32 16.125-2.103 32.968 6.244 47.426 11.132 19.281 31.892 31.259 54.178 31.259a62.367 62.367 0 0 0 24.474-5.03l32.507 56.303 12.99-7.5-32.508-56.305c11.174-8.353 19.19-20.117 22.856-33.802 4.32-16.125 2.103-32.968-6.244-47.426C127.393 11.978 106.633 0 84.347 0c-10.912 0-21.7 2.899-31.199 8.383-14.458 8.347-24.799 21.825-29.121 37.95zM84.347 15c16.944 0 32.727 9.104 41.188 23.759 6.344 10.988 8.029 23.789 4.745 36.044-3.283 12.255-11.143 22.499-22.131 28.842-7.222 4.169-15.416 6.373-23.699 6.373-16.944 0-32.727-9.104-41.188-23.759-6.344-10.988-8.029-23.788-4.745-36.043C41.801 37.96 49.66 27.717 60.648 21.373 67.87 17.204 76.064 15 84.347 15z"/></symbol><symbol viewBox="0 0 23.49 20.17" id="twitter"><title>twitter</title><path class="cls-1" d="M23.45 4.08A2.16 2.16 0 0 0 22 3.71h-1.07a8.34 8.34 0 0 1 .52-1 5.42 5.42 0 0 0 .22-1.26c.13-.17.18-.42.3-.59A.6.6 0 0 0 22 .23C22 0 21.75 0 21.45 0a.51.51 0 0 0-.22.15c-.45.43-.78 1-1.26 1.41h-.07c-.09 0 0 0-.08.07l-.37.22a3 3 0 0 1-.89.52A6.08 6.08 0 0 0 16.71 2a6.44 6.44 0 0 0-3 .74 7.32 7.32 0 0 0-2.15 1.63 8.05 8.05 0 0 0-.37.74s0 .09-.07.07a1.22 1.22 0 0 1-.07.52c0 .13.2.43 0 .52a7.15 7.15 0 0 1-2.15-1 10.15 10.15 0 0 1-2.12-1.06A6 6 0 0 1 5 2.82a3.58 3.58 0 0 1-.67-.89C4 1.77 4.16 1 3.59 1c-.32 0-.34.2-.44.37a1.63 1.63 0 0 0-.37.52S2.77 2 2.71 2a17.77 17.77 0 0 0-.52 3.26 3.07 3.07 0 0 0 .59 1 1.11 1.11 0 0 0-.89.52 3.72 3.72 0 0 0 .74 2.3 2.94 2.94 0 0 0 .59 1 1 1 0 0 0 .3.45 2.21 2.21 0 0 0 .15.22c0 .11.29.18.07.22a2.75 2.75 0 0 0-1.26.37 1.92 1.92 0 0 0 0 1.11 4.45 4.45 0 0 1 .3.52 18.31 18.31 0 0 0 1.63 1.11 15.23 15.23 0 0 0 1.85.37 1.44 1.44 0 0 1-.59.74 19.23 19.23 0 0 1-2.74.74c-.56 0-1 .23-1.56.22-.37.14-.85.09-1.11.23a.8.8 0 0 0-.22.22.72.72 0 0 0 .44.89.45.45 0 0 0 .37.37.8.8 0 0 0 .44.37 10.58 10.58 0 0 0 1.93 1.11c.83.18 1.65.38 2.52.52s1.9.12 2.82.22h1a9.91 9.91 0 0 0 1.85.07.81.81 0 0 1 .52-.07 9.28 9.28 0 0 0 1.63-.74c.57-.24 1-.64 1.56-.89a10 10 0 0 0 2.52-2.37 1.66 1.66 0 0 0 .36-.73 3.34 3.34 0 0 0 .59-.67 9.92 9.92 0 0 0 1-1.41c.32-.5.58-1.05.89-1.56 0-.41.31-.48.3-.89.19-.23.18-.66.37-.89a1.38 1.38 0 0 1 .07-.59 12.15 12.15 0 0 0-.22-3.4 5.74 5.74 0 0 0 1.63-.59 1 1 0 0 0 .82-1.27zM20 8.16a4.73 4.73 0 0 1-1 2 8.65 8.65 0 0 1-.07.89 4.31 4.31 0 0 0-.37 1c-.2.27-.33.61-.52.89-.37.55-.78 1.05-1.19 1.56s-.91 1-1.33 1.48-.94.88-1.41 1.33a5 5 0 0 0-1.26.67 5 5 0 0 0-.67.3c-.18.15-.5.14-.67.3a24 24 0 0 1-3.51.18 26.33 26.33 0 0 1-3-.37 11.79 11.79 0 0 1-2.3-1 1.58 1.58 0 0 1 1-.22A3 3 0 0 1 4 17a3.47 3.47 0 0 0 .52-.07 9.52 9.52 0 0 0 1.7-.59 8.84 8.84 0 0 0 .67-.59.74.74 0 0 1 .22-.44 2 2 0 0 0 .15-.82 1.2 1.2 0 0 0 .3-.67.6.6 0 0 0-.3-.37 1.48 1.48 0 0 0-.44-.22 1.37 1.37 0 0 1-.59-.08c-.15 0-.49.09-.52-.07a3.61 3.61 0 0 1-1.85-.74 4.48 4.48 0 0 0 1.33-.74c.52-.08 1.06-.13 1.11-.67 0-.72-.77-.66-1.33-.82a12.12 12.12 0 0 1-1.75-2.54A3 3 0 0 0 4 7.12a.6.6 0 0 0 .63-.52.94.94 0 0 0-.63-.81A3.5 3.5 0 0 1 3.37 5a18.47 18.47 0 0 1 .07-2.37c.06 0 .07 0 .07.07.23.44.56.77.82 1.19A8.87 8.87 0 0 0 5.89 5c.45.41 1.11.62 1.56 1a16.41 16.41 0 0 1 1.7 1 4.29 4.29 0 0 0 2 .59l.59-.3c.26-.46-.06-1.08.15-1.63a4.35 4.35 0 0 1 1.26-1.48 7.81 7.81 0 0 0 .85-.54 4.82 4.82 0 0 0 1-.37 6.26 6.26 0 0 0 1-.15h1.26a7 7 0 0 0 .74.15 1.83 1.83 0 0 0 .67.37 4.47 4.47 0 0 1 1.41 3A10.23 10.23 0 0 0 20 8.16zm.3-5.63a1.1 1.1 0 0 1-.59.82 2 2 0 0 0-.15-.22c0-.21.21-.19.3-.3a1.92 1.92 0 0 1 .44-.3c.03-.09.15-.05.04 0zm-5.48 3a1.36 1.36 0 0 0 .52.37.71.71 0 0 0 .59.37 2 2 0 0 0 .37-.22.94.94 0 0 0 .3-.3 2.36 2.36 0 0 0-.37-1.33.93.93 0 0 0-1.37 1.15z" id="twitter-twitter"/></symbol><symbol viewBox="0 0 32 32" id="video"><title>video</title><path d="M26 15l6-4v16l-6-4v-8zm-2 0v8a4 4 0 0 1-4 4H4a4 4 0 0 1-4-4v-8a4 4 0 0 1 4-4h10a2 2 0 0 1 2-2V7H5a1 1 0 1 1 0-2h12a1 1 0 0 1 1 1v3a2 2 0 0 1 2 2 4 4 0 0 1 4 4zm-12 0H4v8h8v-8zm8 1a1 1 0 0 0-1-1h-4a1 1 0 1 0 0 2h4a1 1 0 0 0 1-1z"/></symbol></svg>